<svg xmlns="http://www.w3.org/2000/svg" viewBox="0 0 1240 580" role="img" aria-label="EA150: Espaguete cortado → Mesmo espaguete em fios maiores → Espaguete curto sem cortar → Espaguete em fios longos"><title>EA150 - Macarrão</title><rect width="1240" height="580" fill="#F7F9F5"/><rect x="24" y="22" width="1192" height="536" rx="24" fill="white" stroke="#DFE8E2" stroke-width="2"/><rect x="24" y="22" width="1192" height="83" rx="24" fill="#E7C279"/><rect x="24" y="80" width="1192" height="25" fill="#E7C279"/><text x="48" y="75" font-size="29" font-weight="700" fill="#263C37">Macarrão  •  EA150</text><style>.label{font-family:DejaVu Sans,Arial,sans-serif;fill:#253831;font-weight:700}.tiny{font-family:DejaVu Sans,Arial,sans-serif;fill:#53665D}</style><rect x="44" y="129" width="276" height="343" rx="20" fill="#F4F7F2" stroke="#D8E2DB"/><text x="182" y="164" font-size="17" font-family="DejaVu Sans,Arial" font-weight="700" text-anchor="middle" fill="#46615A">1 • ACEITO</text><g transform="translate(70 180)"><ellipse cx="112" cy="98" rx="84" ry="52" fill="#FFFFFF" stroke="#D7E2DC" stroke-width="3"/><ellipse cx="112" cy="102" rx="68" ry="37" fill="#F5F8F4"/><path d="M 58 70 Q 88 30 115 72 T 168 70" fill="none" stroke="#E7C279" stroke-width="9" stroke-linecap="round"/><path d="M 58 84 Q 88 47 115 85 T 168 84" fill="none" stroke="#E7C279" stroke-width="9" stroke-linecap="round"/><path d="M 58 98 Q 88 64 115 98 T 168 98" fill="none" stroke="#E7C279" stroke-width="9" stroke-linecap="round"/><path d="M 58 112 Q 88 81 115 111 T 168 112" fill="none" stroke="#E7C279" stroke-width="9" stroke-linecap="round"/></g><text x="182" y="364" text-anchor="middle" class="label" font-size="19">Espaguete cortado</text><path d="M325 290 l12 0 m-5 -6 l6 6 -6 6" stroke="#5D8E75" stroke-width="3" fill="none"/><rect x="345" y="129" width="276" height="343" rx="20" fill="#F7F3EB" stroke="#D8E2DB"/><text x="483" y="164" font-size="17" font-family="DejaVu Sans,Arial" font-weight="700" text-anchor="middle" fill="#46615A">2 • PONTE</text><g transform="translate(371 180)"><ellipse cx="112" cy="98" rx="84" ry="52" fill="#FFFFFF" stroke="#D7E2DC" stroke-width="3"/><ellipse cx="112" cy="102" rx="68" ry="37" fill="#F5F8F4"/><path d="M 58 70 Q 88 30 115 72 T 168 70" fill="none" stroke="#E7C279" stroke-width="9" stroke-linecap="round"/><path d="M 58 84 Q 88 47 115 85 T 168 84" fill="none" stroke="#E7C279" stroke-width="9" stroke-linecap="round"/><path d="M 58 98 Q 88 64 115 98 T 168 98" fill="none" stroke="#E7C279" stroke-width="9" stroke-linecap="round"/><path d="M 58 112 Q 88 81 115 111 T 168 112" fill="none" stroke="#E7C279" stroke-width="9" stroke-linecap="round"/></g><text x="483" y="364" text-anchor="middle" class="label" font-size="19">Mesmo espaguete em</text><text x="483" y="392" text-anchor="middle" class="label" font-size="19">fios maiores</text><path d="M626 290 l12 0 m-5 -6 l6 6 -6 6" stroke="#5D8E75" stroke-width="3" fill="none"/><rect x="646" y="129" width="276" height="343" rx="20" fill="#F7F3EB" stroke="#D8E2DB"/><text x="784" y="164" font-size="17" font-family="DejaVu Sans,Arial" font-weight="700" text-anchor="middle" fill="#46615A">3 • PONTE</text><g transform="translate(672 180)"><ellipse cx="112" cy="98" rx="84" ry="52" fill="#FFFFFF" stroke="#D7E2DC" stroke-width="3"/><ellipse cx="112" cy="102" rx="68" ry="37" fill="#F5F8F4"/><path d="M 58 70 Q 88 30 115 72 T 168 70" fill="none" stroke="#E7C279" stroke-width="9" stroke-linecap="round"/><path d="M 58 84 Q 88 47 115 85 T 168 84" fill="none" stroke="#E7C279" stroke-width="9" stroke-linecap="round"/><path d="M 58 98 Q 88 64 115 98 T 168 98" fill="none" stroke="#E7C279" stroke-width="9" stroke-linecap="round"/><path d="M 58 112 Q 88 81 115 111 T 168 112" fill="none" stroke="#E7C279" stroke-width="9" stroke-linecap="round"/></g><text x="784" y="364" text-anchor="middle" class="label" font-size="19">Espaguete curto sem</text><text x="784" y="392" text-anchor="middle" class="label" font-size="19">cortar</text><path d="M927 290 l12 0 m-5 -6 l6 6 -6 6" stroke="#5D8E75" stroke-width="3" fill="none"/><rect x="947" y="129" width="276" height="343" rx="20" fill="#EAF5F0" stroke="#D8E2DB"/><text x="1085" y="164" font-size="17" font-family="DejaVu Sans,Arial" font-weight="700" text-anchor="middle" fill="#46615A">4 • NOVO</text><g transform="translate(973 180)"><ellipse cx="112" cy="98" rx="84" ry="52" fill="#FFFFFF" stroke="#D7E2DC" stroke-width="3"/><ellipse cx="112" cy="102" rx="68" ry="37" fill="#F5F8F4"/><path d="M 58 70 Q 88 30 115 72 T 168 70" fill="none" stroke="#E7C279" stroke-width="9" stroke-linecap="round"/><path d="M 58 84 Q 88 47 115 85 T 168 84" fill="none" stroke="#E7C279" stroke-width="9" stroke-linecap="round"/><path d="M 58 98 Q 88 64 115 98 T 168 98" fill="none" stroke="#E7C279" stroke-width="9" stroke-linecap="round"/><path d="M 58 112 Q 88 81 115 111 T 168 112" fill="none" stroke="#E7C279" stroke-width="9" stroke-linecap="round"/></g><text x="1085" y="364" text-anchor="middle" class="label" font-size="19">Espaguete em fios</text><text x="1085" y="392" text-anchor="middle" class="label" font-size="19">longos</text><text x="48" y="512" class="tiny" font-size="19">Uma mudança por vez • mostrar e nomear o alimento • avançar conforme tolerância</text><text x="48" y="539" class="tiny" font-size="15">Ilustração esquemática; aparência real depende do preparo. Andreza Dias • CRN 10418</text></svg>