<svg xmlns="http://www.w3.org/2000/svg" viewBox="0 0 1240 580" role="img" aria-label="EA186: Lentilha batida → Lentilha amassada → Lentilha parcialmente inteira → Lentilha cozida em grãos"><title>EA186 - Leguminosas além do feijão</title><rect width="1240" height="580" fill="#F7F9F5"/><rect x="24" y="22" width="1192" height="536" rx="24" fill="white" stroke="#DFE8E2" stroke-width="2"/><rect x="24" y="22" width="1192" height="83" rx="24" fill="#D3A087"/><rect x="24" y="80" width="1192" height="25" fill="#D3A087"/><text x="48" y="75" font-size="29" font-weight="700" fill="#263C37">Leguminosas além do feijão  •  EA186</text><style>.label{font-family:DejaVu Sans,Arial,sans-serif;fill:#253831;font-weight:700}.tiny{font-family:DejaVu Sans,Arial,sans-serif;fill:#53665D}</style><rect x="44" y="129" width="276" height="343" rx="20" fill="#F4F7F2" stroke="#D8E2DB"/><text x="182" y="164" font-size="17" font-family="DejaVu Sans,Arial" font-weight="700" text-anchor="middle" fill="#46615A">1 • ACEITO</text><g transform="translate(70 180)"><ellipse cx="112" cy="98" rx="84" ry="52" fill="#FFFFFF" stroke="#D7E2DC" stroke-width="3"/><ellipse cx="112" cy="102" rx="68" ry="37" fill="#F5F8F4"/><ellipse cx="60" cy="69" rx="7" ry="5" fill="#D3A087" transform="rotate(0 60 69)"/><ellipse cx="80" cy="69" rx="7" ry="5" fill="#D3A087" transform="rotate(16 80 69)"/><ellipse cx="100" cy="69" rx="7" ry="5" fill="#D3A087" transform="rotate(32 100 69)"/><ellipse cx="120" cy="69" rx="7" ry="5" fill="#D3A087" transform="rotate(48 120 69)"/><ellipse cx="140" cy="69" rx="7" ry="5" fill="#D3A087" transform="rotate(64 140 69)"/><ellipse cx="160" cy="69" rx="7" ry="5" fill="#D3A087" transform="rotate(80 160 69)"/><ellipse cx="60" cy="89" rx="7" ry="5" fill="#D3A087" transform="rotate(96 60 89)"/><ellipse cx="80" cy="89" rx="7" ry="5" fill="#D3A087" transform="rotate(112 80 89)"/><ellipse cx="100" cy="89" rx="7" ry="5" fill="#D3A087" transform="rotate(128 100 89)"/><ellipse cx="120" cy="89" rx="7" ry="5" fill="#D3A087" transform="rotate(144 120 89)"/><ellipse cx="140" cy="89" rx="7" ry="5" fill="#D3A087" transform="rotate(160 140 89)"/><ellipse cx="160" cy="89" rx="7" ry="5" fill="#D3A087" transform="rotate(176 160 89)"/><ellipse cx="60" cy="109" rx="7" ry="5" fill="#D3A087" transform="rotate(192 60 109)"/><ellipse cx="80" cy="109" rx="7" ry="5" fill="#D3A087" transform="rotate(208 80 109)"/><ellipse cx="100" cy="109" rx="7" ry="5" fill="#D3A087" transform="rotate(224 100 109)"/><ellipse cx="120" cy="109" rx="7" ry="5" fill="#D3A087" transform="rotate(240 120 109)"/><ellipse cx="140" cy="109" rx="7" ry="5" fill="#D3A087" transform="rotate(256 140 109)"/><ellipse cx="160" cy="109" rx="7" ry="5" fill="#D3A087" transform="rotate(272 160 109)"/></g><text x="182" y="364" text-anchor="middle" class="label" font-size="19">Lentilha batida</text><path d="M325 290 l12 0 m-5 -6 l6 6 -6 6" stroke="#5D8E75" stroke-width="3" fill="none"/><rect x="345" y="129" width="276" height="343" rx="20" fill="#F7F3EB" stroke="#D8E2DB"/><text x="483" y="164" font-size="17" font-family="DejaVu Sans,Arial" font-weight="700" text-anchor="middle" fill="#46615A">2 • PONTE</text><g transform="translate(371 180)"><ellipse cx="112" cy="98" rx="84" ry="52" fill="#FFFFFF" stroke="#D7E2DC" stroke-width="3"/><ellipse cx="112" cy="102" rx="68" ry="37" fill="#F5F8F4"/><ellipse cx="60" cy="69" rx="7" ry="5" fill="#D3A087" transform="rotate(0 60 69)"/><ellipse cx="80" cy="69" rx="7" ry="5" fill="#D3A087" transform="rotate(16 80 69)"/><ellipse cx="100" cy="69" rx="7" ry="5" fill="#D3A087" transform="rotate(32 100 69)"/><ellipse cx="120" cy="69" rx="7" ry="5" fill="#D3A087" transform="rotate(48 120 69)"/><ellipse cx="140" cy="69" rx="7" ry="5" fill="#D3A087" transform="rotate(64 140 69)"/><ellipse cx="160" cy="69" rx="7" ry="5" fill="#D3A087" transform="rotate(80 160 69)"/><ellipse cx="60" cy="89" rx="7" ry="5" fill="#D3A087" transform="rotate(96 60 89)"/><ellipse cx="80" cy="89" rx="7" ry="5" fill="#D3A087" transform="rotate(112 80 89)"/><ellipse cx="100" cy="89" rx="7" ry="5" fill="#D3A087" transform="rotate(128 100 89)"/><ellipse cx="120" cy="89" rx="7" ry="5" fill="#D3A087" transform="rotate(144 120 89)"/><ellipse cx="140" cy="89" rx="7" ry="5" fill="#D3A087" transform="rotate(160 140 89)"/><ellipse cx="160" cy="89" rx="7" ry="5" fill="#D3A087" transform="rotate(176 160 89)"/><ellipse cx="60" cy="109" rx="7" ry="5" fill="#D3A087" transform="rotate(192 60 109)"/><ellipse cx="80" cy="109" rx="7" ry="5" fill="#D3A087" transform="rotate(208 80 109)"/><ellipse cx="100" cy="109" rx="7" ry="5" fill="#D3A087" transform="rotate(224 100 109)"/><ellipse cx="120" cy="109" rx="7" ry="5" fill="#D3A087" transform="rotate(240 120 109)"/><ellipse cx="140" cy="109" rx="7" ry="5" fill="#D3A087" transform="rotate(256 140 109)"/><ellipse cx="160" cy="109" rx="7" ry="5" fill="#D3A087" transform="rotate(272 160 109)"/></g><text x="483" y="364" text-anchor="middle" class="label" font-size="19">Lentilha amassada</text><path d="M626 290 l12 0 m-5 -6 l6 6 -6 6" stroke="#5D8E75" stroke-width="3" fill="none"/><rect x="646" y="129" width="276" height="343" rx="20" fill="#F7F3EB" stroke="#D8E2DB"/><text x="784" y="164" font-size="17" font-family="DejaVu Sans,Arial" font-weight="700" text-anchor="middle" fill="#46615A">3 • PONTE</text><g transform="translate(672 180)"><ellipse cx="112" cy="98" rx="84" ry="52" fill="#FFFFFF" stroke="#D7E2DC" stroke-width="3"/><ellipse cx="112" cy="102" rx="68" ry="37" fill="#F5F8F4"/><ellipse cx="60" cy="69" rx="7" ry="5" fill="#D3A087" transform="rotate(0 60 69)"/><ellipse cx="80" cy="69" rx="7" ry="5" fill="#D3A087" transform="rotate(16 80 69)"/><ellipse cx="100" cy="69" rx="7" ry="5" fill="#D3A087" transform="rotate(32 100 69)"/><ellipse cx="120" cy="69" rx="7" ry="5" fill="#D3A087" transform="rotate(48 120 69)"/><ellipse cx="140" cy="69" rx="7" ry="5" fill="#D3A087" transform="rotate(64 140 69)"/><ellipse cx="160" cy="69" rx="7" ry="5" fill="#D3A087" transform="rotate(80 160 69)"/><ellipse cx="60" cy="89" rx="7" ry="5" fill="#D3A087" transform="rotate(96 60 89)"/><ellipse cx="80" cy="89" rx="7" ry="5" fill="#D3A087" transform="rotate(112 80 89)"/><ellipse cx="100" cy="89" rx="7" ry="5" fill="#D3A087" transform="rotate(128 100 89)"/><ellipse cx="120" cy="89" rx="7" ry="5" fill="#D3A087" transform="rotate(144 120 89)"/><ellipse cx="140" cy="89" rx="7" ry="5" fill="#D3A087" transform="rotate(160 140 89)"/><ellipse cx="160" cy="89" rx="7" ry="5" fill="#D3A087" transform="rotate(176 160 89)"/><ellipse cx="60" cy="109" rx="7" ry="5" fill="#D3A087" transform="rotate(192 60 109)"/><ellipse cx="80" cy="109" rx="7" ry="5" fill="#D3A087" transform="rotate(208 80 109)"/><ellipse cx="100" cy="109" rx="7" ry="5" fill="#D3A087" transform="rotate(224 100 109)"/><ellipse cx="120" cy="109" rx="7" ry="5" fill="#D3A087" transform="rotate(240 120 109)"/><ellipse cx="140" cy="109" rx="7" ry="5" fill="#D3A087" transform="rotate(256 140 109)"/><ellipse cx="160" cy="109" rx="7" ry="5" fill="#D3A087" transform="rotate(272 160 109)"/></g><text x="784" y="364" text-anchor="middle" class="label" font-size="19">Lentilha parcialmente</text><text x="784" y="392" text-anchor="middle" class="label" font-size="19">inteira</text><path d="M927 290 l12 0 m-5 -6 l6 6 -6 6" stroke="#5D8E75" stroke-width="3" fill="none"/><rect x="947" y="129" width="276" height="343" rx="20" fill="#EAF5F0" stroke="#D8E2DB"/><text x="1085" y="164" font-size="17" font-family="DejaVu Sans,Arial" font-weight="700" text-anchor="middle" fill="#46615A">4 • NOVO</text><g transform="translate(973 180)"><ellipse cx="112" cy="98" rx="84" ry="52" fill="#FFFFFF" stroke="#D7E2DC" stroke-width="3"/><ellipse cx="112" cy="102" rx="68" ry="37" fill="#F5F8F4"/><ellipse cx="60" cy="69" rx="7" ry="5" fill="#D3A087" transform="rotate(0 60 69)"/><ellipse cx="80" cy="69" rx="7" ry="5" fill="#D3A087" transform="rotate(16 80 69)"/><ellipse cx="100" cy="69" rx="7" ry="5" fill="#D3A087" transform="rotate(32 100 69)"/><ellipse cx="120" cy="69" rx="7" ry="5" fill="#D3A087" transform="rotate(48 120 69)"/><ellipse cx="140" cy="69" rx="7" ry="5" fill="#D3A087" transform="rotate(64 140 69)"/><ellipse cx="160" cy="69" rx="7" ry="5" fill="#D3A087" transform="rotate(80 160 69)"/><ellipse cx="60" cy="89" rx="7" ry="5" fill="#D3A087" transform="rotate(96 60 89)"/><ellipse cx="80" cy="89" rx="7" ry="5" fill="#D3A087" transform="rotate(112 80 89)"/><ellipse cx="100" cy="89" rx="7" ry="5" fill="#D3A087" transform="rotate(128 100 89)"/><ellipse cx="120" cy="89" rx="7" ry="5" fill="#D3A087" transform="rotate(144 120 89)"/><ellipse cx="140" cy="89" rx="7" ry="5" fill="#D3A087" transform="rotate(160 140 89)"/><ellipse cx="160" cy="89" rx="7" ry="5" fill="#D3A087" transform="rotate(176 160 89)"/><ellipse cx="60" cy="109" rx="7" ry="5" fill="#D3A087" transform="rotate(192 60 109)"/><ellipse cx="80" cy="109" rx="7" ry="5" fill="#D3A087" transform="rotate(208 80 109)"/><ellipse cx="100" cy="109" rx="7" ry="5" fill="#D3A087" transform="rotate(224 100 109)"/><ellipse cx="120" cy="109" rx="7" ry="5" fill="#D3A087" transform="rotate(240 120 109)"/><ellipse cx="140" cy="109" rx="7" ry="5" fill="#D3A087" transform="rotate(256 140 109)"/><ellipse cx="160" cy="109" rx="7" ry="5" fill="#D3A087" transform="rotate(272 160 109)"/></g><text x="1085" y="364" text-anchor="middle" class="label" font-size="19">Lentilha cozida em</text><text x="1085" y="392" text-anchor="middle" class="label" font-size="19">grãos</text><text x="48" y="512" class="tiny" font-size="19">Uma mudança por vez • mostrar e nomear o alimento • avançar conforme tolerância</text><text x="48" y="539" class="tiny" font-size="15">Ilustração esquemática; aparência real depende do preparo. Andreza Dias • CRN 10418</text></svg>