<svg xmlns="http://www.w3.org/2000/svg" viewBox="0 0 1240 580" role="img" aria-label="EA205: Água com limão aceita → Água com menos limão → Água quase sem limão → Água pura"><title>EA205 - Água e bebidas</title><rect width="1240" height="580" fill="#F7F9F5"/><rect x="24" y="22" width="1192" height="536" rx="24" fill="white" stroke="#DFE8E2" stroke-width="2"/><rect x="24" y="22" width="1192" height="83" rx="24" fill="#E8AF58"/><rect x="24" y="80" width="1192" height="25" fill="#E8AF58"/><text x="48" y="75" font-size="29" font-weight="700" fill="#263C37">Água e bebidas  •  EA205</text><style>.label{font-family:DejaVu Sans,Arial,sans-serif;fill:#253831;font-weight:700}.tiny{font-family:DejaVu Sans,Arial,sans-serif;fill:#53665D}</style><rect x="44" y="129" width="276" height="343" rx="20" fill="#F4F7F2" stroke="#D8E2DB"/><text x="182" y="164" font-size="17" font-family="DejaVu Sans,Arial" font-weight="700" text-anchor="middle" fill="#46615A">1 • ACEITO</text><g transform="translate(70 180)"><path d="M69 35 L155 35 L145 152 Q112 162 79 152 Z" fill="#F7FBFC" stroke="#ADC3C6" stroke-width="4"/><path d="M76 71 L148 71 L141 145 Q111 151 84 145 Z" fill="#E8AF58" opacity=".68"/><path d="M151 40 L175 19" stroke="#89A8A9" stroke-width="5"/></g><text x="182" y="364" text-anchor="middle" class="label" font-size="19">Água com limão aceita</text><path d="M325 290 l12 0 m-5 -6 l6 6 -6 6" stroke="#5D8E75" stroke-width="3" fill="none"/><rect x="345" y="129" width="276" height="343" rx="20" fill="#F7F3EB" stroke="#D8E2DB"/><text x="483" y="164" font-size="17" font-family="DejaVu Sans,Arial" font-weight="700" text-anchor="middle" fill="#46615A">2 • PONTE</text><g transform="translate(371 180)"><path d="M69 35 L155 35 L145 152 Q112 162 79 152 Z" fill="#F7FBFC" stroke="#ADC3C6" stroke-width="4"/><path d="M76 71 L148 71 L141 145 Q111 151 84 145 Z" fill="#E8AF58" opacity=".68"/><path d="M151 40 L175 19" stroke="#89A8A9" stroke-width="5"/></g><text x="483" y="364" text-anchor="middle" class="label" font-size="19">Água com menos limão</text><path d="M626 290 l12 0 m-5 -6 l6 6 -6 6" stroke="#5D8E75" stroke-width="3" fill="none"/><rect x="646" y="129" width="276" height="343" rx="20" fill="#F7F3EB" stroke="#D8E2DB"/><text x="784" y="164" font-size="17" font-family="DejaVu Sans,Arial" font-weight="700" text-anchor="middle" fill="#46615A">3 • PONTE</text><g transform="translate(672 180)"><path d="M69 35 L155 35 L145 152 Q112 162 79 152 Z" fill="#F7FBFC" stroke="#ADC3C6" stroke-width="4"/><path d="M76 71 L148 71 L141 145 Q111 151 84 145 Z" fill="#E8AF58" opacity=".68"/><path d="M151 40 L175 19" stroke="#89A8A9" stroke-width="5"/></g><text x="784" y="364" text-anchor="middle" class="label" font-size="19">Água quase sem limão</text><path d="M927 290 l12 0 m-5 -6 l6 6 -6 6" stroke="#5D8E75" stroke-width="3" fill="none"/><rect x="947" y="129" width="276" height="343" rx="20" fill="#EAF5F0" stroke="#D8E2DB"/><text x="1085" y="164" font-size="17" font-family="DejaVu Sans,Arial" font-weight="700" text-anchor="middle" fill="#46615A">4 • NOVO</text><g transform="translate(973 180)"><path d="M69 35 L155 35 L145 152 Q112 162 79 152 Z" fill="#F7FBFC" stroke="#ADC3C6" stroke-width="4"/><path d="M76 71 L148 71 L141 145 Q111 151 84 145 Z" fill="#E8AF58" opacity=".68"/><path d="M151 40 L175 19" stroke="#89A8A9" stroke-width="5"/></g><text x="1085" y="364" text-anchor="middle" class="label" font-size="19">Água pura</text><text x="48" y="512" class="tiny" font-size="19">Uma mudança por vez • mostrar e nomear o alimento • avançar conforme tolerância</text><text x="48" y="539" class="tiny" font-size="15">Ilustração esquemática; aparência real depende do preparo. Andreza Dias • CRN 10418</text></svg>